<svg width="50" height="50" viewBox="0 0 50 50" fill="none" xmlns="http://www.w3.org/2000/svg">
<path d="M45.4281 20.9198H43.75V20.8333H25V29.1667H36.774C35.0563 34.0177 30.4406 37.5 25 37.5C18.0969 37.5 12.5 31.9031 12.5 25C12.5 18.0969 18.0969 12.5 25 12.5C28.1865 12.5 31.0854 13.7021 33.2927 15.6656L39.1854 9.77292C35.4646 6.30521 30.4875 4.16667 25 4.16667C13.4948 4.16667 4.16669 13.4948 4.16669 25C4.16669 36.5052 13.4948 45.8333 25 45.8333C36.5052 45.8333 45.8334 36.5052 45.8334 25C45.8334 23.6031 45.6896 22.2396 45.4281 20.9198Z" fill="#FFC107"/>
<path d="M6.56873 15.3031L13.4135 20.3229C15.2656 15.7375 19.751 12.5 25 12.5C28.1864 12.5 31.0854 13.7021 33.2927 15.6656L39.1854 9.77292C35.4646 6.30521 30.4875 4.16667 25 4.16667C16.9979 4.16667 10.0583 8.68438 6.56873 15.3031Z" fill="#FF3D00"/>
<path d="M25 45.8333C30.3812 45.8333 35.2708 43.774 38.9677 40.425L32.5198 34.9687C30.4281 36.5531 27.8281 37.5 25 37.5C19.5812 37.5 14.9802 34.0448 13.2469 29.2229L6.45312 34.4573C9.90104 41.2042 16.9031 45.8333 25 45.8333Z" fill="#4CAF50"/>
<path d="M45.4281 20.9198H43.75V20.8333H25V29.1667H36.774C35.949 31.4969 34.45 33.5062 32.5167 34.9698L32.5198 34.9677L38.9677 40.424C38.5115 40.8385 45.8333 35.4167 45.8333 25C45.8333 23.6031 45.6896 22.2396 45.4281 20.9198Z" fill="#1976D2"/>
</svg>
